HIERARCHY
ROOT Bip001_Pelvis
{
  OFFSET 34.4345 95.6767 -26.8758
  CHANNELS 6 Xposition Yposition Zposition Zrotation Xrotation Yrotation
  JOINT Bip001_Spine
  {
    OFFSET 1.4188e-005 10.2191 -0.0116013
    CHANNELS 3 Zrotation Xrotation Yrotation
    JOINT Bip001_L_Thigh
    {
      OFFSET 11.0458 -10.2192 0.0116197
      CHANNELS 3 Zrotation Xrotation Yrotation
      JOINT Bip001_L_Calf
      {
        OFFSET -0.707118 -44.0221 0.360014
        CHANNELS 3 Zrotation Xrotation Yrotation
        JOINT Bip001_L_Foot
        {
          OFFSET -0.651902 -40.5938 -3.56146
          CHANNELS 3 Zrotation Xrotation Yrotation
          JOINT Bip001_L_Toe0
          {
            OFFSET 0.0530839 -10.2181 13.1504
            CHANNELS 3 Zrotation Xrotation Yrotation
            End Site
            {
              OFFSET -1.02532e-005 0 7.55606
            }
          }
        }
      }
    }
    JOINT Bip001_R_Thigh
    {
      OFFSET -11.0458 -10.2191 0.0115893
      CHANNELS 3 Zrotation Xrotation Yrotation
      JOINT Bip001_R_Calf
      {
        OFFSET 0.706994 -44.0221 0.35984
        CHANNELS 3 Zrotation Xrotation Yrotation
        JOINT Bip001_R_Foot
        {
          OFFSET 0.651786 -40.5938 -3.5613
          CHANNELS 3 Zrotation Xrotation Yrotation
          JOINT Bip001_R_Toe0
          {
            OFFSET -0.0531479 -10.2181 13.1504
            CHANNELS 3 Zrotation Xrotation Yrotation
            End Site
            {
              OFFSET -1.02894e-005 0 7.55606
            }
          }
        }
      }
    }
    JOINT Bip001_Spine1
    {
      OFFSET 1.87041e-005 14.5736 1.08638
      CHANNELS 3 Zrotation Xrotation Yrotation
      JOINT Bip001_Spine2
      {
        OFFSET 2.24614e-005 14.5058 -1.69078
        CHANNELS 3 Zrotation Xrotation Yrotation
        JOINT Bip001_Neck
        {
          OFFSET 2.20278e-005 15.3945 -0.489414
          CHANNELS 3 Zrotation Xrotation Yrotation
          JOINT Bip001_L_Clavicle
          {
            OFFSET 6.06036 -0.000579998 0.00836775
            CHANNELS 3 Zrotation Xrotation Yrotation
            JOINT Bip001_L_UpperArm
            {
              OFFSET 11.5509 -0.0600302 0.00193952
              CHANNELS 3 Zrotation Xrotation Yrotation
              JOINT Bip001_L_Forearm
              {
                OFFSET 25.9523 0.0806089 -2.15551
                CHANNELS 3 Zrotation Xrotation Yrotation
                JOINT Bip001_L_Hand
                {
                  OFFSET 32.2475 0.153767 1.63968
                  CHANNELS 3 Zrotation Xrotation Yrotation
                  JOINT Bip001_L_Finger0
                  {
                    OFFSET 6.04639 -2.20976 5.90322
                    CHANNELS 3 Zrotation Xrotation Yrotation
                    End Site
                    {
                      OFFSET 4.22375 -1.43895 0.606485
                    }
                  }
                  JOINT Bip001_L_Finger1
                  {
                    OFFSET 11.0826 -0.704819 -0.198153
                    CHANNELS 3 Zrotation Xrotation Yrotation
                    End Site
                    {
                      OFFSET 6.20027 -0.397518 -0.0787166
                    }
                  }
                }
              }
            }
          }
          JOINT Bip001_R_Clavicle
          {
            OFFSET -6.06037 -0.000563197 0.00835105
            CHANNELS 3 Zrotation Xrotation Yrotation
            JOINT Bip001_R_UpperArm
            {
              OFFSET -11.5509 -0.0599978 0.00190698
              CHANNELS 3 Zrotation Xrotation Yrotation
              JOINT Bip001_R_Forearm
              {
                OFFSET -25.9523 0.0806822 -2.15589
                CHANNELS 3 Zrotation Xrotation Yrotation
                JOINT Bip001_R_Hand
                {
                  OFFSET -32.2475 0.153859 1.63989
                  CHANNELS 3 Zrotation Xrotation Yrotation
                  JOINT Bip001_R_Finger0
                  {
                    OFFSET -6.04641 -2.20976 5.90317
                    CHANNELS 3 Zrotation Xrotation Yrotation
                    End Site
                    {
                      OFFSET -4.22376 -1.43895 0.60647
                    }
                  }
                  JOINT Bip001_R_Finger1
                  {
                    OFFSET -11.0826 -0.704794 -0.198182
                    CHANNELS 3 Zrotation Xrotation Yrotation
                    End Site
                    {
                      OFFSET -6.20028 -0.397504 -0.0787333
                    }
                  }
                }
              }
            }
          }
          JOINT Bip001_Head
          {
            OFFSET 1.09673e-005 11.2744 2.05948
            CHANNELS 3 Zrotation Xrotation Yrotation
            End Site
            {
              OFFSET 2.89576e-005 20.8808 -2.77728e-005
            }
          }
        }
      }
    }
  }
}
MOTION
Frames:	11
Frame Time:	0.04
32.7477 94.896 -31.6426 1.40184 -1.31711 0.47484 0.292882 2.58215 -0.423543 5.58469 -5.18038 11.1716 -1.01916 13.1431 -2.22536 3.80747 -4.42535 -0.00307154 1.38367 -6.46647 -0.528611 -6.25678 -8.33757 -0.933385 0.752506 19.7744 2.30358 -9.80293 -10.1658 -5.05263 3.30354 -11.0015 3.76481 0.609332 5.16205 -0.861539 0.606266 5.16204 -0.861654 9.07513 -8.77185 0.0611054 -32.6981 9.77653 0.246911 -53.0403 41.1773 6.45994 20.5134 3.28008 -32.9175 5.77387 2.0672 -5.76696 -1.76556e-031 6.36111e-015 1.59028e-015 -5.29669e-031 9.54167e-015 3.18055e-015 17.679 17.3691 21.1958 55.3733 17.2214 -13.4277 -41.1937 29.6507 29.6971 -5.15098 -10.4859 6.35833 4.41391e-032 1.59028e-015 -1.59028e-015 -3.18055e-015 1.59028e-015 -1.59028e-015 -6.69369 -8.76502 3.09548 
32.464 94.6367 -31.8296 1.24524 -1.74424 -2.0916 0.350718 2.70413 -0.600309 6.03509 -5.37651 10.6181 -1.55888 15.0444 0.89486 4.10316 -5.15569 0.0192292 1.4963 -6.86481 -0.497321 -5.75986 -9.60222 1.44186 0.82324 21.5463 2.55028 -10.0264 -10.6982 -5.08158 3.20724 -10.8321 3.82936 0.730251 5.40437 -1.21925 0.730935 5.40438 -1.21923 8.29265 -8.06644 1.85281 -31.186 10.0893 -1.55346 -53.9832 42.6887 6.22474 19.1095 1.77412 -30.7861 5.66206 2.00406 -5.57586 -9.54166e-015 0 3.18055e-015 -9.54166e-015 -3.18056e-015 1.59028e-015 19.1286 15.9357 18.9473 54.9335 14.7054 -12.6389 -31.4031 23.7124 22.7119 -6.74065 -5.51138 4.35984 -3.18055e-015 -9.54166e-015 -3.18055e-015 -3.18055e-015 -6.36111e-015 -1.59028e-015 -5.76681 -9.31882 4.55649 
32.1691 94.0918 -31.8185 1.02867 -2.61482 -4.6858 0.424314 2.88911 -0.756068 6.59416 -5.73423 11.8357 -1.75804 18.4908 1.92897 5.26772 -6.24507 0.0566073 1.60922 -7.65974 -0.329009 -5.29432 -10.8662 1.75934 0.155881 24.5426 3.44301 -10.1997 -12.2154 -3.75807 3.30887 -11.0791 3.86536 0.888512 5.77227 -1.53649 0.88851 5.77228 -1.53649 7.66232 -6.99872 3.4971 -29.8211 9.96762 -3.56671 -54.5958 44.9799 5.32147 17.8329 -0.138754 -28.1291 4.93823 1.89663 -4.94297 -3.18055e-015 3.18055e-015 -0 -3.18055e-015 0 -0 20.2237 13.7701 15.8961 55.1605 15.7698 -12.6753 -26.0511 15.573 18.638 -2.94047 -3.6985 1.79816 0 6.36111e-015 -0 1.59028e-015 3.18056e-015 4.77083e-015 -5.26403 -10.2997 5.98891 
31.9827 93.566 -31.7452 1.05615 -3.01824 -7.1991 0.425463 2.9933 -0.807624 6.91092 -5.99608 11.5926 -2.61155 20.9405 4.50879 6.26889 -7.10316 0.100927 1.7488 -8.33251 -0.197384 -5.32375 -12.3975 2.62799 0.384135 27.3851 3.94828 -10.4721 -13.7128 -3.05621 3.32425 -11.136 3.90348 0.89602 5.98024 -1.64029 0.895496 5.98024 -1.64064 7.38451 -6.16244 4.82338 -28.9308 9.83425 -5.16157 -54.4158 45.931 3.66956 17.3339 -0.785535 -26.1916 3.64484 1.99058 -4.26854 -6.36111e-015 -3.18055e-015 -7.95139e-016 -3.18055e-015 0 -7.95139e-016 20.5355 11.711 12.6095 56.5136 18.8521 -13.0561 -24.7768 10.307 15.6905 2.28675 -8.01853 2.79004 -7.95139e-016 0 -0 7.95139e-016 0 -0 -5.14701 -11.0441 7.24532 
31.7159 92.9243 -31.6166 0.775395 -3.82761 -9.19868 0.425463 3.18938 -0.929953 7.27606 -6.15189 11.9814 -2.83439 23.6225 5.45826 8.4875 -7.02535 0.107116 1.90063 -9.78789 0.040292 -4.79424 -13.528 4.41741 0.758731 30.4433 4.39557 -11.1952 -14.9658 -3.52073 3.30509 -11.0939 3.90087 0.910175 6.37119 -1.88971 0.907247 6.3712 -1.88902 7.11614 -5.75268 6.12748 -28.2284 9.9662 -6.23321 -53.6857 44.0325 1.70679 17.2541 0.139489 -25.2782 3.37513 2.32337 -3.76858 -8.82781e-032 -6.36111e-015 -7.95139e-016 3.18055e-015 -3.18056e-015 -1.59028e-015 21.1253 10.0748 9.17862 57.0618 19.3398 -12.6065 -24.735 3.59951 14.182 9.72424 -11.07 2.39805 1.98785e-015 6.36111e-015 7.45442e-016 3.00662e-015 3.18056e-015 7.45442e-016 -4.7614 -11.4218 8.43212 
31.227 92.173 -31.4886 -0.212585 -4.80571 -10.6232 0.531354 3.41232 -1.13406 8.99991 -6.42908 12.4251 -4.0105 27.422 6.72594 9.54755 -8.44284 0.246842 2.07989 -10.2683 0.0563352 -3.20242 -13.9874 6.39139 0.60831 33.1373 4.65327 -12.0855 -16.0336 -4.23403 3.40094 -11.2863 3.87063 1.13937 6.8133 -2.30571 1.13739 6.81331 -2.30619 6.82686 -5.13051 7.46785 -27.4087 9.89268 -7.48804 -53.6166 41.9698 1.05598 17.2372 -0.160451 -25.3663 4.59432 2.27744 -4.10134 0 0 -0 -0 0 7.95139e-016 21.7502 8.48656 6.66457 57.3575 17.4422 -12.452 -23.9299 -1.5871 14.307 9.48361 -11.6329 1.4491 1.83876e-015 -1.59028e-015 5.96354e-016 -9.93923e-017 0 1.98785e-016 -4.22067 -12.0868 9.64595 
30.8028 91.4483 -31.3926 -0.865655 -5.47467 -11.8115 0.561462 3.5498 -1.28396 10.619 -6.74483 12.2426 -5.80747 30.761 8.79954 8.85031 -10.8349 0.41366 1.88835 -9.88443 0.262035 -2.14862 -14.7134 8.22965 1.29407 35.8718 4.71438 -13.0296 -17.0192 -5.36184 3.44569 -11.3884 3.87269 1.19616 7.08604 -2.61007 1.20819 7.08604 -2.60996 6.35555 -4.46469 8.67527 -26.2129 9.65504 -8.78651 -53.4679 40.1472 0.369239 16.5246 -1.60402 -26.4252 6.40489 2.33704 -3.61919 4.41391e-032 1.59028e-015 -1.59028e-015 3.18055e-015 3.18056e-015 -1.59028e-015 22.4878 7.00053 4.72578 57.4391 10.128 -12.9207 -22.6908 -5.40497 17.7372 4.0316 -9.07412 0.793566 3.02603e-015 3.97569e-016 2.48481e-017 2.84976e-015 5.96354e-016 7.45442e-017 -3.42562 -12.9904 10.6626 
30.4843 90.653 -31.22 -1.57172 -6.48838 -12.5043 0.571709 3.75299 -1.40868 11.878 -6.88978 11.9419 -7.02505 34.077 10.3343 8.24124 -13.0769 0.553734 1.87268 -9.62872 0.321725 -1.4867 -15.1216 8.88422 2.03404 38.7512 4.75626 -13.9026 -18.1507 -6.04397 3.47729 -11.3684 3.74582 1.25458 7.49034 -2.86463 1.25458 7.49036 -2.86462 5.81209 -3.75227 9.66229 -25.1201 9.23318 -9.85751 -52.8835 39.7193 -0.61543 15.7122 -3.77436 -27.5894 7.86718 1.92009 -3.71598 -3.18055e-015 0 1.59028e-015 -6.36111e-015 -1.59028e-015 1.59028e-015 23.3282 5.31792 2.462 57.4435 1.00338 -13.6805 -23.0748 -4.68592 23.7523 -2.32687 -6.26173 0.0778523 3.85145e-016 0 9.93923e-017 2.90101e-015 -7.95139e-016 -2.48481e-016 -2.64674 -14.2943 11.4605 
30.2481 89.7335 -31.0013 -2.23489 -7.55775 -12.6106 0.588863 3.93638 -1.53537 12.9046 -7.21462 12.3284 -7.37587 37.6104 10.1633 8.83092 -14.6697 0.729098 1.90383 -9.85461 0.481014 -0.850431 -15.3776 9.5322 2.9007 41.7545 4.40754 -14.9827 -19.3217 -7.10151 3.64113 -11.699 3.70537 1.28397 7.85526 -3.12225 1.28572 7.85529 -3.12211 5.60047 -2.95501 10.4472 -24.4111 8.6662 -10.7612 -52.2476 39.1603 -1.40259 15.409 -4.92845 -29.3961 8.08569 1.52444 -3.89627 0 1.59028e-015 -0 -3.18055e-015 3.18056e-015 -0 24.2228 3.37158 -0.352453 57.3776 -7.35049 -14.6896 -28.4127 -1.63895 30.8951 -5.18953 -7.11736 2.67035 2.18663e-015 1.59028e-015 3.97569e-015 2.18663e-015 3.18056e-015 3.18055e-015 -2.31549 -15.3688 12.2125 
30.0641 88.8467 -30.736 -3.12013 -8.60256 -12.4536 0.637438 4.05268 -1.70726 14.2304 -7.39944 12.35 -8.1177 41.0479 10.6822 8.4408 -16.9302 0.864419 2.10125 -9.56467 0.414211 -0.160915 -15.2493 10.1133 4.07294 44.2618 3.76797 -16.0367 -20.3107 -8.26846 3.85514 -12.3313 3.9848 1.40116 8.08466 -3.47281 1.40116 8.08449 -3.47281 5.73302 -1.76369 11.5081 -24.079 7.80601 -11.7071 -52.4859 38.1822 -1.01973 16.4801 -4.04367 -31.8401 8.51186 1.05706 -4.61271 6.36111e-015 -3.18055e-015 1.59028e-015 6.36111e-015 -1.59028e-015 -0 24.0194 1.46263 -2.04478 56.3432 -19.4655 -16.5556 -35.6792 3.60692 42.9132 -11.5686 -7.38554 2.97622 -3.57812e-015 3.18055e-015 -0 -4.96962e-015 1.59028e-015 -7.95139e-016 -2.81533 -16.7141 13.4525 
30.0712 88.0738 -30.5015 -3.92764 -9.49278 -11.9288 0.715836 4.09777 -1.97544 15.3797 -7.59835 12.68 -8.55188 44.0118 10.4897 8.3787 -18.6885 0.999529 2.23006 -9.48883 0.260403 0.141824 -15.0042 10.5282 5.74646 46.2183 2.83125 -17.1095 -21.1001 -9.50278 3.93557 -12.6213 4.17464 1.58356 8.16826 -4.02087 1.58121 8.16874 -4.01926 5.00047 -1.6184 12.7114 -22.8651 7.73181 -12.2168 -53.4251 37.0841 -0.18688 17.436 -3.3032 -34.3404 9.28573 1.21225 -6.55784 -6.36111e-015 -1.59028e-015 -3.18055e-015 -6.36111e-015 -1.59028e-015 -3.18055e-015 24.4174 0.91838 -2.46453 51.4079 -35.8225 -19.1441 -40.596 7.08668 57.7448 -14.1251 -5.93149 2.89979 -5.56597e-015 6.36111e-015 -7.95139e-016 -6.75868e-015 6.36111e-015 -7.95139e-016 -2.55476 -17.0817 14.4262 
